<?xml version="1.0" encoding="utf-8" ?>	<!-- Generator: Assembly 2.2 - http://assemblyapp.co -->	<svg version="1.1" xmlns="http://www.w3.org/2000/svg" xmlns:xlink="http://www.w3.org/1999/xlink" width="2048.00" height="2048.00" viewBox="0 0 2048.0 2048.0">		<g id="document" transform="matrix(1,0,0,1,1024.0,1024.0)">			<path d="M351.326,902.104 C655.077,902.104 902.104,655.077 902.104,351.326 L902.104,-351.326 C902.104,-655.077 655.077,-902.104 351.326,-902.104 L-351.326,-902.104 C-655.077,-902.104 -902.104,-655.077 -902.104,-351.326 L-902.104,351.326 C-902.104,655.077 -655.077,902.104 -351.326,902.104 L351.326,902.104 Z " fill="#cbcbcb" fill-opacity="1.00" />			<path d="M182.113,-208.499 C182.113,-420.396 100.578,-592.173 -5.30004e-14,-592.173 C-100.578,-592.173 -182.113,-420.396 -182.113,-208.499 C-182.113,3.39829 -100.578,175.175 -5.30004e-14,175.175 C100.578,175.175 182.113,3.39829 182.113,-208.499 Z " fill="#24682c" fill-opacity="1.00" />			<path d="M275.331,-1.06001e-13 C275.331,-160.18 213.696,-290.032 137.665,-290.032 C61.6352,-290.032 0.000418044,-160.18 0.000418044,-1.06001e-13 C0.000418044,160.18 61.6352,290.032 137.665,290.032 C213.696,290.032 275.331,160.18 275.331,-1.06001e-13 Z " fill="#3cb44b" fill-opacity="1.00" />			<path d="M-48.1627,-114.857 C-48.1627,-275.038 -109.797,-404.889 -185.828,-404.889 C-261.858,-404.889 -323.493,-275.038 -323.493,-114.857 C-323.493,45.3231 -261.858,175.175 -185.828,175.175 C-109.797,175.175 -48.1627,45.3231 -48.1627,-114.857 Z " fill="#9abc45" fill-opacity="1.00" />			<path d="M-350.686,0.000418044 C-377.75,0.000418044 -399.242,23.8805 -397.65,50.9447 C-388.098,174.325 -363.422,491.135 -349.094,565.163 C-333.97,638.396 -256.757,721.976 -224.917,753.816 C-216.161,762.572 -204.221,767.348 -191.485,767.348 L191.393,767.348 C204.129,767.348 216.069,762.572 224.825,753.816 C257.461,721.18 334.674,637.6 349.002,565.163 C364.126,491.135 388.006,175.121 397.558,50.9447 C399.946,23.8805 377.658,0.000418044 350.594,0.000418044 L-350.686,0.000418044 L-350.686,0.000418044 Z " fill="#ffffff" fill-opacity="1.00" />		</g>	</svg>